<svg xmlns="http://www.w3.org/2000/svg" viewBox="0 0 900 460" width="100%" height="100%">
  <defs>
    <!-- Background & Card Gradients -->
    <linearGradient id="dash-bg" x1="0%" y1="0%" x2="100%" y2="100%">
      <stop offset="0%" stop-color="#090a10"/>
      <stop offset="50%" stop-color="#0d0e17"/>
      <stop offset="100%" stop-color="#141122"/>
    </linearGradient>

    <!-- Aurora Hairline Border -->
    <linearGradient id="aurora-border" x1="0%" y1="0%" x2="100%" y2="100%">
      <stop offset="0%" stop-color="#22d3ee" stop-opacity="0.8"/>
      <stop offset="50%" stop-color="#a78bfa" stop-opacity="0.4"/>
      <stop offset="100%" stop-color="#f472b6" stop-opacity="0.8"/>
    </linearGradient>

    <pattern id="dot-grid" x="0" y="0" width="16" height="16" patternUnits="userSpaceOnUse">
      <circle cx="2" cy="2" r="1" fill="#ffffff" fill-opacity="0.03"/>
    </pattern>

    <!-- Holographic Foil Sweep Gradient -->
    <linearGradient id="holo-foil" x1="0%" y1="0%" x2="100%" y2="100%">
      <stop offset="0%" stop-color="#22d3ee" stop-opacity="0">
        <animate attributeName="stop-opacity" values="0;0.6;0" dur="4s" repeatCount="indefinite"/>
      </stop>
      <stop offset="50%" stop-color="#f472b6" stop-opacity="0.4">
        <animate attributeName="stop-opacity" values="0.4;0.8;0.4" dur="4s" repeatCount="indefinite"/>
      </stop>
      <stop offset="100%" stop-color="#a78bfa" stop-opacity="0">
        <animate attributeName="stop-opacity" values="0;0.6;0" dur="4s" repeatCount="indefinite"/>
      </stop>
    </linearGradient>

    <!-- Gold Chip Gradient -->
    <linearGradient id="gold-chip" x1="0%" y1="0%" x2="100%" y2="100%">
      <stop offset="0%" stop-color="#fbbf24"/>
      <stop offset="50%" stop-color="#d97706"/>
      <stop offset="100%" stop-color="#fef08a"/>
    </linearGradient>

    <!-- Bar Chart Growth Gradients -->
    <linearGradient id="bar-grad-cyan" x1="0%" y1="100%" x2="0%" y2="0%">
      <stop offset="0%" stop-color="#083344"/>
      <stop offset="100%" stop-color="#22d3ee"/>
    </linearGradient>

    <filter id="glow-cyan" x="-20%" y="-20%" width="140%" height="140%">
      <feGaussianBlur stdDeviation="5" result="blur"/>
      <feComposite in="SourceGraphic" in2="blur" operator="over"/>
    </filter>

    <style>
      .text-mono { font-family: 'JetBrains Mono', 'Fira Code', monospace; }
      .text-sans { font-family: ui-sans-serif, system-ui, -apple-system, BlinkMacSystemFont, "Segoe UI", Roboto, sans-serif; }

      /* Damped Pendulum Swing for Lanyard Badge */
      @keyframes pendulum-swing {
        0% { transform: rotate(0deg); }
        20% { transform: rotate(4deg); }
        40% { transform: rotate(-3deg); }
        60% { transform: rotate(2deg); }
        80% { transform: rotate(-1deg); }
        100% { transform: rotate(0deg); }
      }
      .badge-swing { transform-origin: 155px 0px; animation: pendulum-swing 6s ease-in-out infinite; }

      /* Traveling Light Border around Photo Frame */
      @keyframes light-travel {
        0% { stroke-dashoffset: 320; }
        100% { stroke-dashoffset: 0; }
      }
      .frame-light { stroke-dasharray: 80, 240; animation: light-travel 3s linear infinite; }

      /* Bar Chart Growth */
      @keyframes bar-grow-1 { 0% { height: 0px; y: 150px; } 100% { height: 120px; y: 30px; } }
      @keyframes bar-grow-2 { 0% { height: 0px; y: 150px; } 100% { height: 95px; y: 55px; } }
      @keyframes bar-grow-3 { 0% { height: 0px; y: 150px; } 100% { height: 75px; y: 75px; } }
      @keyframes bar-grow-4 { 0% { height: 0px; y: 150px; } 100% { height: 60px; y: 90px; } }

      .bar-1 { animation: bar-grow-1 1.5s ease-out forwards; }
      .bar-2 { animation: bar-grow-2 1.8s ease-out forwards; }
      .bar-3 { animation: bar-grow-3 2.1s ease-out forwards; }
      .bar-4 { animation: bar-grow-4 2.4s ease-out forwards; }

      @keyframes pulse-dot { 0%, 100% { opacity: 1; transform: scale(1); } 50% { opacity: 0.4; transform: scale(1.3); } }
      .live-dot { animation: pulse-dot 1.5s infinite ease-in-out; transform-origin: center; }
    </style>
  </defs>

  <!-- Card Canvas Background -->
  <rect width="900" height="460" rx="16" fill="url(#dash-bg)"/>
  <rect width="900" height="460" rx="16" fill="url(#dot-grid)"/>
  <rect width="898" height="458" x="1" y="1" rx="15" fill="none" stroke="url(#aurora-border)" stroke-width="1.5"/>

  <!-- ================= LEFT SIDE: SWINGING HOLOGRAPHIC ID BADGE ================= -->
  <g class="badge-swing" transform="translate(25, 0)">
    <!-- Lanyard Strap Top Anchor -->
    <path d="M135 -20 L135 35 L175 35 L175 -20 Z" fill="#1e1b4b"/>
    <text x="155" y="15" class="text-mono" font-size="7" font-weight="700" fill="#a78bfa" text-anchor="middle" transform="rotate(90 155 15)">INTELLIDEV</text>

    <!-- Metal Clasp Connector -->
    <rect x="142" y="32" width="26" height="14" rx="3" fill="#64748b" stroke="#cbd5e1" stroke-width="1"/>
    <circle cx="155" cy="42" r="4" fill="#090a10"/>

    <!-- ID Card Container -->
    <g transform="translate(20, 48)">
      <!-- Card Base -->
      <rect width="270" height="380" rx="16" fill="#0c0e18" stroke="#22d3ee" stroke-opacity="0.3" stroke-width="1.5"/>
      <rect width="270" height="380" rx="16" fill="url(#holo-foil)"/>
      <rect width="268" height="378" x="1" y="1" rx="15" fill="none" stroke="url(#aurora-border)" stroke-width="1"/>

      <!-- Header Banner -->
      <path d="M0 16 C0 7.2 7.2 0 16 0 H254 C262.8 0 270 7.2 270 16 V50 H0 Z" fill="#16182c"/>
      <text x="135" y="24" class="text-mono" font-size="10" font-weight="800" fill="#22d3ee" text-anchor="middle" letter-spacing="1">INTELLIDEV ARCHITECT</text>
      <text x="135" y="38" class="text-mono" font-size="9" fill="#94a3b8" text-anchor="middle">VERIFIED IDENTITY // ID-9042</text>

      <!-- Character Portrait in Frame with Light Sweep -->
      <g transform="translate(65, 65)">
        <!-- Photo Frame Outer Border -->
        <rect width="140" height="150" rx="10" fill="#090a10" stroke="#1e293b" stroke-width="2"/>
        <!-- Traveling Light Line -->
        <rect width="140" height="150" rx="10" fill="none" stroke="#22d3ee" stroke-width="2" class="frame-light" filter="url(#glow-cyan)"/>

        <!-- Avatar Drawing inside Photo Frame -->
        <g transform="translate(10, 10)">
          <!-- Background Glow -->
          <circle cx="60" cy="55" r="45" fill="#a78bfa" fill-opacity="0.2"/>
          <!-- Hoodie Base -->
          <path d="M20 130 C20 90 40 80 60 80 C80 80 100 90 100 130 Z" fill="#1e1b4b"/>
          <path d="M50 88 L60 102 L70 88 L60 130 Z" fill="#fbbf24"/>
          <!-- Head & Hair -->
          <ellipse cx="60" cy="55" rx="28" ry="32" fill="#fca5a5" fill-opacity="0.5"/>
          <path d="M32 50 C30 25 50 15 60 15 C75 15 90 25 88 50 C80 32 68 25 60 25 C48 25 40 35 32 50 Z" fill="#0f172a"/>
          <!-- Sunglasses -->
          <rect x="42" y="48" width="16" height="10" rx="2" fill="#22d3ee"/>
          <rect x="62" y="48" width="16" height="10" rx="2" fill="#22d3ee"/>
          <line x1="58" y1="52" x2="62" y2="52" stroke="#0f172a" stroke-width="2"/>
          <!-- Smile -->
          <path d="M52 70 Q60 76 68 70" fill="none" stroke="#ffffff" stroke-width="2"/>
        </g>
      </g>

      <!-- Gold Microchip -->
      <g transform="translate(25, 230)">
        <rect width="36" height="28" rx="4" fill="url(#gold-chip)" stroke="#b45309" stroke-width="1"/>
        <path d="M0 14 H36 M18 0 V28 M10 0 V28 M26 0 V28" stroke="#78350f" stroke-width="0.8"/>
      </g>

      <!-- Member Details -->
      <g transform="translate(75, 232)">
        <text x="0" y="0" class="text-sans" font-size="16" font-weight="900" fill="#ffffff">Tazim Kassar</text>
        <text x="0" y="16" class="text-mono" font-size="11" fill="#38bdf8" font-weight="600">Senior Platform Engineer</text>
      </g>

      <!-- Barcode Section -->
      <g transform="translate(25, 290)">
        <!-- Barcode Lines -->
        <rect x="0" y="0" width="220" height="35" rx="4" fill="#ffffff"/>
        <g fill="#000000">
          <rect x="10" y="5" width="3" height="25"/>
          <rect x="15" y="5" width="1" height="25"/>
          <rect x="18" y="5" width="4" height="25"/>
          <rect x="24" y="5" width="2" height="25"/>
          <rect x="28" y="5" width="5" height="25"/>
          <rect x="35" y="5" width="1" height="25"/>
          <rect x="38" y="5" width="3" height="25"/>
          <rect x="43" y="5" width="6" height="25"/>
          <rect x="51" y="5" width="2" height="25"/>
          <rect x="55" y="5" width="4" height="25"/>
          <rect x="61" y="5" width="1" height="25"/>
          <rect x="64" y="5" width="5" height="25"/>
          <rect x="71" y="5" width="3" height="25"/>
          <rect x="76" y="5" width="2" height="25"/>
          <rect x="80" y="5" width="6" height="25"/>
          <rect x="88" y="5" width="2" height="25"/>
          <rect x="92" y="5" width="4" height="25"/>
          <rect x="98" y="5" width="1" height="25"/>
          <rect x="101" y="5" width="5" height="25"/>
          <rect x="108" y="5" width="3" height="25"/>
          <rect x="113" y="5" width="2" height="25"/>
          <rect x="117" y="5" width="6" height="25"/>
          <rect x="125" y="5" width="2" height="25"/>
          <rect x="129" y="5" width="4" height="25"/>
          <rect x="135" y="5" width="1" height="25"/>
          <rect x="138" y="5" width="5" height="25"/>
          <rect x="145" y="5" width="3" height="25"/>
          <rect x="150" y="5" width="2" height="25"/>
          <rect x="154" y="5" width="6" height="25"/>
          <rect x="162" y="5" width="2" height="25"/>
          <rect x="166" y="5" width="4" height="25"/>
          <rect x="172" y="5" width="1" height="25"/>
          <rect x="175" y="5" width="5" height="25"/>
          <rect x="182" y="5" width="3" height="25"/>
          <rect x="187" y="5" width="2" height="25"/>
          <rect x="191" y="5" width="6" height="25"/>
          <rect x="199" y="5" width="2" height="25"/>
          <rect x="203" y="5" width="4" height="25"/>
        </g>
        <text x="110" y="32" class="text-mono" font-size="7" fill="#000000" text-anchor="middle" font-weight="700">TAZIMCODER-9042-AUTH-OK</text>
      </g>

      <text x="135" y="358" class="text-mono" font-size="10" fill="#a78bfa" font-weight="700" text-anchor="middle">★ TOP CONTRIBUTOR ★</text>
    </g>
  </g>

  <!-- ================= RIGHT SIDE: DASHBOARD METRICS & REPO CHART ================= -->
  <g transform="translate(335, 30)">
    <text x="0" y="0" class="text-mono" font-size="12" font-weight="700" fill="#22d3ee" letter-spacing="1.5">📊 METRICS &amp; REPOSITORY DASHBOARD</text>
    <text x="0" y="20" class="text-sans" font-size="20" font-weight="800" fill="#ffffff">Live Platform Telemetry</text>

    <!-- Top KPI Tiles -->
    <g transform="translate(0, 38)">
      <!-- Tile 1: Uptime -->
      <g transform="translate(0, 0)">
        <rect width="165" height="70" rx="10" fill="#131627" stroke="#22d3ee" stroke-opacity="0.2" stroke-width="1"/>
        <text x="16" y="32" class="text-mono" font-size="24" font-weight="900" fill="#22d3ee" filter="url(#glow-cyan)">99.9%</text>
        <text x="16" y="52" class="text-sans" font-size="11" font-weight="600" fill="#94a3b8">Platform Uptime</text>
      </g>

      <!-- Tile 2: Repositories -->
      <g transform="translate(180, 0)">
        <rect width="165" height="70" rx="10" fill="#131627" stroke="#a78bfa" stroke-opacity="0.2" stroke-width="1"/>
        <text x="16" y="32" class="text-mono" font-size="24" font-weight="900" fill="#a78bfa">50+</text>
        <text x="16" y="52" class="text-sans" font-size="11" font-weight="600" fill="#94a3b8">Active Repositories</text>
      </g>

      <!-- Tile 3: Lines of Code -->
      <g transform="translate(360, 0)">
        <rect width="170" height="70" rx="10" fill="#131627" stroke="#f472b6" stroke-opacity="0.2" stroke-width="1"/>
        <text x="16" y="32" class="text-mono" font-size="24" font-weight="900" fill="#f472b6">1.2M+</text>
        <text x="16" y="52" class="text-sans" font-size="11" font-weight="600" fill="#94a3b8">Lines of Code</text>
      </g>
    </g>

    <!-- Middle Section: Single-Hue Repository Bar Chart -->
    <g transform="translate(0, 130)">
      <rect width="530" height="185" rx="12" fill="#0f111d" stroke="#ffffff" stroke-opacity="0.08" stroke-width="1"/>
      <text x="20" y="24" class="text-mono" font-size="12" font-weight="700" fill="#cbd5e1">MOST STARRED &amp; IMPACT REPOSITORIES</text>

      <!-- Chart Axes & Grid Lines -->
      <g transform="translate(20, 35)">
        <line x1="0" y1="30" x2="490" y2="30" stroke="#ffffff" stroke-opacity="0.05"/>
        <line x1="0" y1="60" x2="490" y2="60" stroke="#ffffff" stroke-opacity="0.05"/>
        <line x1="0" y1="90" x2="490" y2="90" stroke="#ffffff" stroke-opacity="0.05"/>
        <line x1="0" y1="120" x2="490" y2="120" stroke="#ffffff" stroke-opacity="0.1"/>

        <!-- Bar 1: IntelliDev -->
        <g transform="translate(30, 0)">
          <rect x="0" y="0" width="55" height="120" rx="6" fill="url(#bar-grad-cyan)" class="bar-1"/>
          <text x="27" y="-5" class="text-mono" font-size="11" font-weight="800" fill="#22d3ee" text-anchor="middle">1.4k ★</text>
          <text x="27" y="136" class="text-sans" font-size="11" font-weight="600" fill="#cbd5e1" text-anchor="middle">IntelliDev</text>
        </g>

        <!-- Bar 2: AI-Copilot-Engine -->
        <g transform="translate(150, 0)">
          <rect x="0" y="25" width="55" height="95" rx="6" fill="url(#bar-grad-cyan)" class="bar-2"/>
          <text x="27" y="20" class="text-mono" font-size="11" font-weight="800" fill="#22d3ee" text-anchor="middle">980 ★</text>
          <text x="27" y="136" class="text-sans" font-size="11" font-weight="600" fill="#cbd5e1" text-anchor="middle">AI-Engine</text>
        </g>

        <!-- Bar 3: Web-IDE-Core -->
        <g transform="translate(270, 0)">
          <rect x="0" y="45" width="55" height="75" rx="6" fill="url(#bar-grad-cyan)" class="bar-3"/>
          <text x="27" y="40" class="text-mono" font-size="11" font-weight="800" fill="#22d3ee" text-anchor="middle">720 ★</text>
          <text x="27" y="136" class="text-sans" font-size="11" font-weight="600" fill="#cbd5e1" text-anchor="middle">Web-IDE</text>
        </g>

        <!-- Bar 4: SAST-Scanner -->
        <g transform="translate(390, 0)">
          <rect x="0" y="60" width="55" height="60" rx="6" fill="url(#bar-grad-cyan)" class="bar-4"/>
          <text x="27" y="55" class="text-mono" font-size="11" font-weight="800" fill="#22d3ee" text-anchor="middle">540 ★</text>
          <text x="27" y="136" class="text-sans" font-size="11" font-weight="600" fill="#cbd5e1" text-anchor="middle">SAST-Scanner</text>
        </g>
      </g>
    </g>

    <!-- Bottom Section: "NOW" Live Activity Panel -->
    <g transform="translate(0, 332)">
      <rect width="530" height="72" rx="10" fill="#131627" stroke="#22d3ee" stroke-opacity="0.3" stroke-width="1"/>
      <circle cx="20" cy="24" r="5" fill="#22d3ee" class="live-dot" filter="url(#glow-cyan)"/>
      <text x="34" y="28" class="text-mono" font-size="12" font-weight="800" fill="#22d3ee">NOW FOCUSING ON:</text>
      
      <text x="20" y="50" class="text-sans" font-size="13" font-weight="600" fill="#f8fafc">
        ⚡ Building IntelliDev AI IDE &amp; high-performance code intelligence platform.
      </text>
    </g>
  </g>
</svg>
